<?xml version="1.0" encoding="utf-8"?>
<!-- Generator: Adobe Illustrator 22.0.1, SVG Export Plug-In . SVG Version: 6.00 Build 0)  -->
<svg version="1.1" id="Layer_1" xmlns="http://www.w3.org/2000/svg" xmlns:xlink="http://www.w3.org/1999/xlink" x="0px" y="0px"
	 viewBox="0 0 471.2 320.6" style="enable-background:new 0 0 471.2 320.6;" xml:space="preserve">
<style type="text/css">
	.st0{fill:#E2E6E8;}
</style>
<path class="st0" d="M16.2,37.1c3.5-12.6,15.6-21.9,29.9-21.9c14.3,0,26.3,9.3,29.8,21.9H16.2z M394.1,268.7V44.7
	C394.1,20,373.4,0,348,0H46.1C20.7,0,0,20,0,44.7v7.6h77.1v224.1c0,24.6,20.7,44.7,46.1,44.7H425c25.4,0,46.1-20,46.1-44.7v-7.6
	L394.1,268.7L394.1,268.7z M92.2,276.3V44.7c0-11.3-4.4-21.6-11.5-29.5H348c17.1,0,31,13.2,31,29.5v224.1H154.1v7.6
	c0,16.3-13.9,29.5-31,29.5S92.2,292.6,92.2,276.3z M425,305.8H157.8c5.5-6.1,9.4-13.6,10.9-21.9H455
	C451.5,296.5,439.4,305.8,425,305.8z"/>
<path class="st0" d="M324.5,93.6h-87.7c-6.3,0-11.4-5.1-11.4-11.4s5.1-11.4,11.4-11.4h87.7c6.3,0,11.4,5.1,11.4,11.4
	S330.8,93.6,324.5,93.6z"/>
<path class="st0" d="M324.5,161h-87.7c-6.3,0-11.4-5.1-11.4-11.4s5.1-11.4,11.4-11.4h87.7c6.3,0,11.4,5.1,11.4,11.4
	C335.9,155.9,330.8,161,324.5,161z"/>
<path class="st0" d="M324.5,228.5h-87.7c-6.3,0-11.4-5.1-11.4-11.4c0-6.3,5.1-11.4,11.4-11.4h87.7c6.3,0,11.4,5.1,11.4,11.4
	C335.9,223.4,330.8,228.5,324.5,228.5z"/>
<path class="st0" d="M187.7,108.9h-53.3V55.5h53.3V108.9z M149.6,93.7h23v-23h-23V93.7z M187.7,176.3h-53.3V123h53.3V176.3z
	 M149.6,161.2h23v-23h-23V161.2z M187.7,243.8h-53.3v-53.3h53.3V243.8z M149.6,228.6h23v-23h-23V228.6z"/>
</svg>
