<?xml version="1.0" encoding="utf-8"?>
<!-- Generator: Adobe Illustrator 22.0.1, SVG Export Plug-In . SVG Version: 6.00 Build 0)  -->
<svg version="1.1" id="Layer_1" xmlns="http://www.w3.org/2000/svg" xmlns:xlink="http://www.w3.org/1999/xlink" x="0px" y="0px"
	 viewBox="0 0 595.3 160.9" style="enable-background:new 0 0 595.3 160.9;" xml:space="preserve">
<style type="text/css">
	.st0{fill:#75B743;}
	.st1{fill:#FFFFFF;}
</style>
<path class="st0" d="M5,89l124.7,70.6c1.5,0.8,3.2,1.3,4.9,1.3h450.9c5.4,0,9.8-4.4,9.8-9.8V9.8c0-5.4-4.4-9.8-9.8-9.8H134.6
	c-1.7,0-3.4,0.4-4.9,1.3L5,71.9C-1.7,75.7-1.7,85.3,5,89z"/>
<g>
	<path class="st1" d="M364.1,55.2c1.8,0.4,3.4,0.9,4.8,1.5c1.4,0.7,2.5,1.4,3.3,2.2c0.8,0.8,1.2,1.7,1.2,2.7c0,0.9-0.3,1.7-0.9,2.3
		c-0.6,0.6-1.4,1-2.3,1c-0.8,0-2-0.4-3.5-1.3c-1.2-0.8-2.4-1.4-3.6-1.9c-1.2-0.4-2.8-0.7-4.8-0.7c-2.8,0-5.1,0.8-6.9,2.4
		c-1.8,1.6-2.7,3.6-2.7,6.2c0,1.4,0.3,2.6,0.9,3.7c0.6,1,1.5,1.9,2.6,2.7s2.3,1.4,3.6,1.9c1.3,0.5,2.9,1.1,4.9,1.8
		c2.7,1,4.9,1.8,6.6,2.6c1.7,0.8,3.3,1.8,4.9,3c1.5,1.2,2.8,2.8,3.7,4.7c0.9,1.9,1.4,4.2,1.4,6.8c0,2.5-0.4,4.9-1.3,7.2
		c-0.9,2.3-2.2,4.3-4,6.1c-1.7,1.8-3.9,3.2-6.4,4.2c-2.5,1-5.4,1.5-8.6,1.5c-2,0-4-0.2-6-0.6c-2-0.4-3.8-0.9-5.4-1.5
		c-1.6-0.6-2.9-1.4-3.9-2.3s-1.4-1.9-1.4-2.9c0-1.1,0.3-2,0.8-2.7c0.5-0.7,1.3-1.1,2.3-1.1c0.6,0,1.7,0.5,3.4,1.4
		c1.7,1,3.3,1.7,4.9,2.3c1.5,0.6,3.4,0.9,5.5,0.9c3.7,0,6.7-1.2,9-3.6c2.3-2.4,3.4-5.3,3.4-8.7c0-1.6-0.3-2.9-1-4.1
		c-0.6-1.1-1.5-2.1-2.7-2.9c-1.2-0.8-2.4-1.5-3.7-2c-1.3-0.5-3.1-1.2-5.2-1.9c-2.5-0.9-4.6-1.7-6.3-2.4c-1.7-0.7-3.3-1.7-4.8-2.8
		c-1.5-1.2-2.7-2.7-3.6-4.4c-0.9-1.8-1.3-3.9-1.3-6.5c0-1.8,0.4-3.6,1.2-5.4c0.8-1.8,2-3.5,3.6-5c1.6-1.5,3.4-2.8,5.6-3.7
		c2.2-0.9,4.7-1.4,7.4-1.4C360.6,54.7,362.4,54.8,364.1,55.2z"/>
	<path class="st1" d="M386.5,60.7c0-1.2,0.3-2.2,1-2.9c0.7-0.7,1.6-1.1,2.7-1.1c1.1,0,2,0.4,2.7,1.1c0.7,0.7,1,1.7,1,2.9v9.7h3
		c2.5,0,3.7,1.1,3.7,3.2c0,2.1-1.2,3.2-3.7,3.2h-3v35.1c0,1.2-0.3,2.2-1,2.9c-0.7,0.7-1.6,1.1-2.7,1.1c-1.1,0-2-0.4-2.7-1.1
		c-0.7-0.7-1-1.7-1-2.9V76.8h-3c-2.5,0-3.7-1.1-3.7-3.2c0-2.1,1.2-3.2,3.7-3.2h3V60.7z"/>
	<path class="st1" d="M410.9,95.8c0,4,1.2,7.2,3.6,9.8c2.4,2.6,5.6,3.9,9.7,3.9c2.8,0,5.1-0.4,6.8-1.2c1.7-0.8,3.5-1.9,5.2-3.2
		c1.5-1.1,2.5-1.7,3.1-1.7c0.7,0,1.4,0.3,1.9,0.9c0.5,0.6,0.8,1.4,0.8,2.4c0,0.9-0.5,1.9-1.6,3c-1,1.1-2.4,2.1-4.2,3
		c-1.7,1-3.7,1.7-5.8,2.3c-2.1,0.6-4.3,0.9-6.4,0.9c-3.5,0-6.6-0.6-9.2-1.9c-2.6-1.2-4.8-2.9-6.5-5.1c-1.7-2.1-2.9-4.6-3.8-7.4
		c-0.8-2.8-1.2-5.7-1.2-8.7c0-3,0.5-6,1.4-8.7c0.9-2.8,2.3-5.3,4.1-7.4c1.8-2.1,3.9-3.8,6.4-5c2.5-1.2,5.3-1.8,8.3-1.8
		c3,0,5.7,0.6,8.1,1.8c2.4,1.2,4.4,2.9,6.1,5c1.7,2.1,3,4.5,3.8,7.1c0.9,2.6,1.3,5.3,1.3,8c0,1.3-0.3,2.4-0.9,3s-1.7,1-3.3,1H410.9z
		 M435.6,90.2c0-1.6-0.2-3.3-0.7-4.9c-0.5-1.6-1.2-3.1-2.2-4.5c-1-1.4-2.3-2.5-3.8-3.3c-1.5-0.8-3.2-1.2-5.2-1.2
		c-2.3,0-4.2,0.4-5.8,1.2c-1.6,0.8-2.9,1.8-3.9,3.1c-1,1.3-1.7,2.8-2.2,4.4c-0.5,1.6-0.8,3.4-0.8,5.2H435.6z"/>
	<path class="st1" d="M476.8,86.7c0-3.2-0.8-5.7-2.5-7.6c-1.7-1.9-4.1-2.8-7.1-2.8c-3,0-5.3,0.9-7,2.8c-1.7,1.9-2.5,4.4-2.5,7.6
		v25.2c0,1.2-0.3,2.2-1,2.9c-0.7,0.7-1.6,1.1-2.7,1.1c-1.1,0-2-0.4-2.7-1.1s-1-1.7-1-2.9V73.9c0-1.2,0.3-2.2,1-2.9
		c0.7-0.7,1.6-1.1,2.7-1.1c1.1,0,2,0.4,2.7,1.1c0.7,0.7,1,1.7,1,2.9v1.3l0.2,0.2c1.2-1.6,2.7-3,4.4-4c1.7-1,4-1.5,7-1.5
		c2.4,0,4.7,0.6,6.8,1.8c2.1,1.2,4,3.1,5.5,5.8c1.7-2.5,3.7-4.4,5.9-5.7c2.2-1.3,4.8-1.9,7.9-1.9c1.9,0,3.7,0.3,5.5,0.9
		c1.8,0.6,3.5,1.6,5,3c1.5,1.4,2.8,3.1,3.7,5.3c0.9,2.2,1.4,4.8,1.4,7.9v25c0,1.2-0.3,2.2-1,2.9s-1.6,1.1-2.7,1.1
		c-1.1,0-2-0.4-2.7-1.1c-0.7-0.7-1-1.7-1-2.9V86.7c0-3.2-0.8-5.7-2.5-7.6c-1.7-1.9-4.1-2.8-7.1-2.8c-3,0-5.3,0.9-7,2.8
		c-1.7,1.9-2.5,4.4-2.5,7.6v25.2c0,1.2-0.3,2.2-1,2.9c-0.7,0.7-1.6,1.1-2.7,1.1s-2-0.4-2.7-1.1s-1-1.7-1-2.9V86.7z"/>
</g>
<path class="st1" d="M315.4,68.4c0-5.9-4.8-10.6-10.6-10.6h-38.3c5.1-8.5,9-18.3,8.8-28.8c-0.1-6.4-5.3-11.6-11.7-11.6
	c0,0-0.1,0-0.1,0c-6.5,0.1-11.7,5.4-11.6,11.9c0.1,8.1-5,16.7-10.8,23.9c-0.6-3.3-3.5-5.7-7-5.7h-22c-3.9,0-7.1,3.2-7.1,7.1v78.4
	c0,3.9,3.2,7.1,7.1,7.1h22c3.9,0,7.1-3.2,7.1-7.1v-2.1h47c5.9,0,10.6-4.8,10.6-10.6c0-3.1-1.3-5.8-3.4-7.8c5.2-0.7,9.3-5.1,9.3-10.5
	c0-1.9-0.5-3.8-1.4-5.3c3.6-1.7,6.1-5.4,6.1-9.6c0-3.2-1.4-6-3.6-8C311,78.6,315.4,74,315.4,68.4z"/>
</svg>
