<?xml version="1.0" encoding="utf-8"?>
<!-- Generator: Adobe Illustrator 22.0.1, SVG Export Plug-In . SVG Version: 6.00 Build 0)  -->
<svg version="1.1" id="Layer_1" xmlns="http://www.w3.org/2000/svg" xmlns:xlink="http://www.w3.org/1999/xlink" x="0px" y="0px"
	 viewBox="0 0 472.4 474.3" style="enable-background:new 0 0 472.4 474.3;" xml:space="preserve">
<style type="text/css">
	.st0{fill:#E2E6E8;}
</style>
<path class="st0" d="M441.6,472.4H30.8c-17,0-30.8-13.8-30.8-30.8V30.8C0,13.8,13.8,0,30.8,0h410.8c17,0,30.8,13.8,30.8,30.8v410.8
	C472.4,458.6,458.6,472.4,441.6,472.4z M30.8,14.1c-9.2,0-16.7,7.5-16.7,16.7v410.8c0,9.2,7.5,16.7,16.7,16.7h410.8
	c9.2,0,16.7-7.5,16.7-16.7V30.8c0-9.2-7.5-16.7-16.7-16.7H30.8z"/>
<g>
	<g>
		<path class="st0" d="M361.8,426.1H110.2c-5.6,0-10.2-4.4-10.5-10L85.5,164.5c-0.2-2.9,0.9-5.7,2.9-7.8c2-2.1,4.8-3.3,7.7-3.3
			h279.8c2.9,0,5.7,1.2,7.7,3.3c2,2.1,3,4.9,2.9,7.8l-14.1,251.6C372,421.7,367.4,426.1,361.8,426.1z M120.1,405h231.6l12.9-230.5
			H107.3L120.1,405z"/>
		<path class="st0" d="M167.3,376.8c-5.8,0-10.6-4.7-10.6-10.6V221.1c0-5.8,4.7-10.6,10.6-10.6c5.8,0,10.6,4.7,10.6,10.6v145.2
			C177.9,372.1,173.2,376.8,167.3,376.8z"/>
		<path class="st0" d="M235.1,376.8c-5.8,0-10.6-4.7-10.6-10.6V221.1c0-5.8,4.7-10.6,10.6-10.6c5.8,0,10.6,4.7,10.6,10.6v145.2
			C245.6,372.1,240.9,376.8,235.1,376.8z"/>
		<path class="st0" d="M302.8,376.8c-5.8,0-10.6-4.7-10.6-10.6V221.1c0-5.8,4.7-10.6,10.6-10.6c5.8,0,10.6,4.7,10.6,10.6v145.2
			C313.4,372.1,308.7,376.8,302.8,376.8z"/>
	</g>
	<path class="st0" d="M324.8,121.5H145.4c-5.8,0-10.6-4.7-10.6-10.6V96.7c0-27.8,22.6-50.4,50.4-50.4H285
		c27.8,0,50.4,22.6,50.4,50.4V111C335.4,116.8,330.6,121.5,324.8,121.5z M155.9,100.4h158.4v-3.7c0-16.1-13.1-29.3-29.3-29.3h-99.8
		c-16.1,0-29.3,13.1-29.3,29.3V100.4z"/>
	<path class="st0" d="M396.3,173.4H76.1c-5.8,0-10.6-4.7-10.6-10.6V111c0-5.8,4.7-10.6,10.6-10.6h320.2c5.8,0,10.6,4.7,10.6,10.6
		v51.9C406.9,168.7,402.1,173.4,396.3,173.4z M86.7,152.3h299.1v-30.8H86.7V152.3z"/>
</g>
</svg>
