<?xml version="1.0" encoding="utf-8"?>
<!-- Generator: Adobe Illustrator 22.0.1, SVG Export Plug-In . SVG Version: 6.00 Build 0)  -->
<svg version="1.1" id="Layer_1" xmlns="http://www.w3.org/2000/svg" xmlns:xlink="http://www.w3.org/1999/xlink" x="0px" y="0px"
	 viewBox="0 0 595.3 524.3" style="enable-background:new 0 0 595.3 524.3;" xml:space="preserve">
<style type="text/css">
	.st0{fill:#E2E6E8;}
</style>
<path class="st0" d="M295,45.5L17.5,0.2C8.3-1.3,0,5.8,0,15.1v447.8c0,7.4,5.3,13.7,12.6,14.9l282.4,46c1.6,0.3,3.2,0.3,4.8,0
	l282.4-46.1c7.3-1.2,12.6-7.5,12.6-14.9V15.1c0-9.3-8.3-16.3-17.5-14.9L299.8,45.5C298.2,45.8,296.6,45.8,295,45.5z M228.3,268.8
	L64.3,242c-7.3-1.2-12.6-7.5-12.6-14.9V85.8c0-9.3,8.3-16.3,17.5-14.9l164,26.8c7.3,1.2,12.6,7.5,12.6,14.9V254
	C245.7,263.2,237.4,270.3,228.3,268.8z M563.4,427l-224.5,36.6v-23L563.4,404V427z M563.4,343l-224.5,36.6v-23L563.4,320V343z
	 M563.4,259l-224.5,36.6v-23L563.4,236V259z M563.4,175l-224.5,36.6v-23L563.4,152V175z M563.4,91.1l-224.5,36.6v-23L563.4,68V91.1z
	"/>
</svg>
