<?xml version="1.0" encoding="utf-8"?>
<!-- Generator: Adobe Illustrator 20.1.0, SVG Export Plug-In . SVG Version: 6.00 Build 0)  -->
<svg version="1.1" id="Logo" xmlns="http://www.w3.org/2000/svg" xmlns:xlink="http://www.w3.org/1999/xlink" x="0px" y="0px"
	 viewBox="0 0 334.7 193.1" style="enable-background:new 0 0 334.7 193.1;" xml:space="preserve">
<style type="text/css">
	.st0{fill:#94BB1E;}
	.st1{fill:#FFFFFF;}
</style>
<title>EMTE_logo_RGB_schild_payoff_MEDIUM</title>
<path class="st0" d="M38.6,0c-9.8,0-19.3,4.2-26.9,11.7S0,28.8,0,38.6v116c0,9.8,4.2,19.3,11.7,26.9s17.1,11.7,26.9,11.7h257.6
	c9.8,0,19.3-4.2,26.9-11.7s11.7-17.1,11.7-26.9V0H38.6z"/>
<path d="M326.9,8.3H38.6c-16,0-30.8,14.9-30.8,30.8v116c0,16,14.9,30.8,30.8,30.8h257.6c16,0,30.8-14.9,30.8-30.8L326.9,8.3z"/>
<path class="st0" d="M281.2,49.3c-1.6,0.7-3.3,1.1-5.1,1.1c-5,0-8-3.8-8-8.6c-0.1-3,1.7-5.8,4.6-6.8l18.6-8.1
	c1.6-0.7,3.3-1.1,5.1-1.1c5,0,8.1,3.8,8.1,8.6c0.1,3-1.7,5.8-4.6,6.8L281.2,49.3z"/>
<path class="st1" d="M30.8,66.3c0-6.4,4.8-10,10-10h30.8c6.3,0,10,3.7,10,9.3c0,5.8-3.7,9.3-10,9.3H50.9v16h19
	c6.3,0,10.1,3.6,10.1,9.3s-3.7,9.3-10.1,9.3h-19V126h21.5c6.3,0,10,3.5,10,9.3c0,5.6-3.7,9.3-10,9.3H40.8c-5.4,0.2-9.8-4-10-9.4
	c0-0.2,0-0.4,0-0.6L30.8,66.3L30.8,66.3z"/>
<path class="st1" d="M99.7,68.1c1.9-10.6,8.2-12.7,13.3-12.7c10,0,12.3,5.8,17.4,21.7l9.8,30.4h0.2l9.8-30.4
	c5.1-15.9,7.3-21.7,17.4-21.7c5.1,0,11.4,2.1,13.3,12.7l7.9,45.4c1.6,9.2,3.4,19.2,3.4,22.2c0,5.2-4.2,9.5-9.4,9.6
	c-9,0-10.7-6.4-11.6-13.3l-6-39.2h-0.2l-13.5,43.4c-2,6.4-5,9.1-11,9.1s-9.1-2.6-11-9.1l-13.6-43.4h-0.2l-6,39.2
	c-1,6.8-2.6,13.3-11.7,13.3c-5.2,0-9.5-4.3-9.4-9.6c0-3,1.7-13,3.4-22.2L99.7,68.1z"/>
<path class="st1" d="M211.5,74.8h-11.3c-6.7,0-10.4-3.7-10.4-9.3c0-5.8,3.7-9.3,10.4-9.3h42.7c6.7,0,10.4,3.5,10.4,9.3
	c0,5.6-3.7,9.3-10.4,9.3h-11.3v59.8c0,7.1-4.2,10.7-10,10.7s-10-3.6-10-10.7L211.5,74.8L211.5,74.8z"/>
<path class="st1" d="M258.2,66.3c0-6.4,4.8-10,10-10h30.8c6.3,0,10,3.7,10,9.3c0,5.8-3.7,9.3-10,9.3h-20.7v16h19
	c6.3,0,10,3.6,10,9.3s-3.7,9.3-10,9.3h-19V126h21.5c6.3,0,10,3.5,10,9.3c0,5.6-3.7,9.3-10,9.3h-31.5c-5.2,0-10-3.6-10-10L258.2,66.3
	L258.2,66.3z"/>
</svg>
