<?xml version="1.0" encoding="utf-8"?>
<!-- Generator: Adobe Illustrator 22.0.1, SVG Export Plug-In . SVG Version: 6.00 Build 0)  -->
<svg version="1.1" id="Layer_1" xmlns="http://www.w3.org/2000/svg" xmlns:xlink="http://www.w3.org/1999/xlink" x="0px" y="0px"
	 viewBox="0 0 472.4 474.3" style="enable-background:new 0 0 472.4 474.3;" xml:space="preserve">
<style type="text/css">
	.st0{fill:#E2E6E8;}
</style>
<path class="st0" d="M441.6,472.4H30.8c-17,0-30.8-13.8-30.8-30.8V30.8C0,13.8,13.8,0,30.8,0h410.8c17,0,30.8,13.8,30.8,30.8v410.8
	C472.4,458.6,458.6,472.4,441.6,472.4z M30.8,14.1c-9.2,0-16.7,7.5-16.7,16.7v410.8c0,9.2,7.5,16.7,16.7,16.7h410.8
	c9.2,0,16.7-7.5,16.7-16.7V30.8c0-9.2-7.5-16.7-16.7-16.7H30.8z"/>
<g>
	<path class="st0" d="M236.2,417.5c-5.8,0-10.6-4.7-10.6-10.6V65.5c0-5.8,4.7-10.6,10.6-10.6c5.8,0,10.6,4.7,10.6,10.6v341.5
		C246.8,412.8,242,417.5,236.2,417.5z"/>
	<path class="st0" d="M406.9,246.8H65.5c-5.8,0-10.6-4.7-10.6-10.6c0-5.8,4.7-10.6,10.6-10.6h341.5c5.8,0,10.6,4.7,10.6,10.6
		C417.5,242,412.8,246.8,406.9,246.8z"/>
</g>
</svg>
