<?xml version="1.0" encoding="utf-8"?>
<!-- Generator: Adobe Illustrator 22.0.1, SVG Export Plug-In . SVG Version: 6.00 Build 0)  -->
<svg version="1.1" id="Layer_1" xmlns="http://www.w3.org/2000/svg" xmlns:xlink="http://www.w3.org/1999/xlink" x="0px" y="0px"
	 viewBox="0 0 595.3 595.3" style="enable-background:new 0 0 595.3 595.3;" xml:space="preserve">
<style type="text/css">
	.st0{fill:#EC1F27;}
	.st1{fill:#FFFFFF;}
	.st2{font-family:'ArialMT';}
	.st3{font-size:108.9675px;}
	.st4{font-size:171.8452px;}
	.st5{letter-spacing:3;}
</style>
<path class="st0" d="M523.8,595.3H71.5C32,595.3,0,563.3,0,523.8V71.5C0,32,32,0,71.5,0h523.8v523.8
	C595.3,563.3,563.3,595.3,523.8,595.3z"/>
<g>
	<path class="st1" d="M66.6,277.5l42.5-4.4c1.2,9.6,4.8,17.2,10.8,22.8c6,5.6,12.8,8.4,20.6,8.4c8.9,0,16.4-3.6,22.6-10.8
		c6.2-7.2,9.3-18.1,9.3-32.7c0-13.7-3.1-23.9-9.2-30.7c-6.1-6.8-14.1-10.2-23.9-10.2c-12.2,0-23.2,5.4-32.9,16.2l-34.6-5l21.8-115.7
		h112.7v39.9h-80.4l-6.7,37.8c9.5-4.8,19.2-7.1,29.1-7.1c18.9,0,34.9,6.9,48.1,20.6c13.1,13.8,19.7,31.6,19.7,53.5
		c0,18.3-5.3,34.6-15.9,49c-14.5,19.6-34.5,29.4-60.2,29.4c-20.5,0-37.3-5.5-50.2-16.5C76.8,310.9,69.1,296.1,66.6,277.5z"/>
	<path class="st1" d="M310.8,111.4c21.5,0,38.4,7.7,50.5,23.1c14.5,18.2,21.7,48.4,21.7,90.6c0,42.1-7.3,72.3-21.8,90.7
		c-12,15.2-28.8,22.7-50.4,22.7c-21.6,0-39.1-8.3-52.3-25c-13.2-16.6-19.9-46.3-19.9-89c0-41.9,7.3-72,21.8-90.4
		C272.4,119,289.2,111.4,310.8,111.4z M310.8,146.7c-5.2,0-9.8,1.6-13.8,4.9c-4,3.3-7.2,9.2-9.4,17.7c-2.9,11-4.4,29.6-4.4,55.7
		c0,26.1,1.3,44,3.9,53.8c2.6,9.8,5.9,16.3,9.9,19.5c4,3.2,8.6,4.9,13.7,4.9c5.2,0,9.8-1.6,13.8-4.9c4-3.3,7.2-9.2,9.4-17.7
		c2.9-10.9,4.4-29.4,4.4-55.5c0-26.1-1.3-44-3.9-53.8c-2.6-9.8-5.9-16.3-9.9-19.6C320.5,148.4,315.9,146.7,310.8,146.7z"/>
</g>
<text transform="matrix(1 0 0 1 52.7637 482.5967)" class="st1 st2 st3">KORTING</text>
<g>
	<circle class="st1" cx="60" cy="502.8" r="7.3"/>
	<circle class="st1" cx="84.7" cy="502.8" r="7.3"/>
	<circle class="st1" cx="109.4" cy="502.8" r="7.3"/>
	<circle class="st1" cx="134.1" cy="502.8" r="7.3"/>
	<circle class="st1" cx="158.8" cy="502.8" r="7.3"/>
	<circle class="st1" cx="183.5" cy="502.8" r="7.3"/>
	<circle class="st1" cx="208.1" cy="502.8" r="7.3"/>
	<circle class="st1" cx="232.8" cy="502.8" r="7.3"/>
	<circle class="st1" cx="257.5" cy="502.8" r="7.3"/>
	<circle class="st1" cx="282.2" cy="502.8" r="7.3"/>
	<circle class="st1" cx="306.9" cy="502.8" r="7.3"/>
	<circle class="st1" cx="331.6" cy="502.8" r="7.3"/>
	<circle class="st1" cx="356.3" cy="502.8" r="7.3"/>
	<circle class="st1" cx="381" cy="502.8" r="7.3"/>
	<circle class="st1" cx="405.6" cy="502.8" r="7.3"/>
	<circle class="st1" cx="430.3" cy="502.8" r="7.3"/>
	<circle class="st1" cx="455" cy="502.8" r="7.3"/>
	<circle class="st1" cx="479.7" cy="502.8" r="7.3"/>
	<circle class="st1" cx="504.4" cy="502.8" r="7.3"/>
	<circle class="st1" cx="529.1" cy="502.8" r="7.3"/>
</g>
<text transform="matrix(1 0 0 1 405.6406 241.8623)" class="st1 st2 st4 st5">%</text>
</svg>
