<?xml version="1.0" encoding="utf-8"?>
<!-- Generator: Adobe Illustrator 22.0.1, SVG Export Plug-In . SVG Version: 6.00 Build 0)  -->
<svg version="1.1" id="Layer_1" xmlns="http://www.w3.org/2000/svg" xmlns:xlink="http://www.w3.org/1999/xlink" x="0px" y="0px"
	 viewBox="0 0 595.3 595.3" style="enable-background:new 0 0 595.3 595.3;" xml:space="preserve">
<style type="text/css">
	.st0{fill:#EC1F27;}
	.st1{fill:#FFFFFF;}
	.st2{font-family:'ArialMT';}
	.st3{font-size:108.9675px;}
</style>
<path class="st0" d="M522.8,595.3H72.5c-40,0-72.5-32.5-72.5-72.5V72.5C0,32.5,32.5,0,72.5,0h522.8v522.8
	C595.3,562.9,562.9,595.3,522.8,595.3z"/>
<g>
	<path class="st1" d="M140,271.7l46.6-5.7c1.5,11.9,5.5,21,12,27.3c6.5,6.3,14.4,9.4,23.7,9.4c9.9,0,18.3-3.8,25.1-11.3
		c6.8-7.5,10.2-17.7,10.2-30.5c0-12.1-3.3-21.7-9.8-28.8c-6.5-7.1-14.5-10.6-23.8-10.6c-6.2,0-13.5,1.2-22.1,3.6l5.3-39.3
		c13,0.3,23-2.5,29.8-8.5c6.9-6,10.3-14,10.3-23.9c0-8.5-2.5-15.2-7.5-20.2c-5-5-11.7-7.5-20.1-7.5c-8.2,0-15.3,2.9-21.1,8.6
		c-5.8,5.7-9.4,14.1-10.6,25l-44.4-7.5c3.1-15.2,7.7-27.4,14-36.4c6.2-9.1,14.9-16.2,26.1-21.4c11.1-5.2,23.6-7.8,37.5-7.8
		c23.7,0,42.6,7.5,56.9,22.6c11.8,12.3,17.7,26.3,17.7,41.8c0,22.1-12.1,39.7-36.2,52.8c14.4,3.1,25.9,10,34.6,20.8
		c8.6,10.7,12.9,23.7,12.9,38.9c0,22.1-8.1,40.9-24.2,56.4c-16.1,15.6-36.2,23.3-60.2,23.3c-22.8,0-41.6-6.5-56.6-19.6
		C151.1,310,142.4,292.9,140,271.7z"/>
</g>
<text transform="matrix(1 0 0 1 97.8633 482.5967)" class="st1 st2 st3">GRATIS</text>
<g>
	<circle class="st1" cx="60" cy="502.8" r="7.3"/>
	<circle class="st1" cx="84.7" cy="502.8" r="7.3"/>
	<circle class="st1" cx="109.4" cy="502.8" r="7.3"/>
	<circle class="st1" cx="134.1" cy="502.8" r="7.3"/>
	<circle class="st1" cx="158.8" cy="502.8" r="7.3"/>
	<circle class="st1" cx="183.5" cy="502.8" r="7.3"/>
	<circle class="st1" cx="208.1" cy="502.8" r="7.3"/>
	<circle class="st1" cx="232.8" cy="502.8" r="7.3"/>
	<circle class="st1" cx="257.5" cy="502.8" r="7.3"/>
	<circle class="st1" cx="282.2" cy="502.8" r="7.3"/>
	<circle class="st1" cx="306.9" cy="502.8" r="7.3"/>
	<circle class="st1" cx="331.6" cy="502.8" r="7.3"/>
	<circle class="st1" cx="356.3" cy="502.8" r="7.3"/>
	<circle class="st1" cx="381" cy="502.8" r="7.3"/>
	<circle class="st1" cx="405.6" cy="502.8" r="7.3"/>
	<circle class="st1" cx="430.3" cy="502.8" r="7.3"/>
	<circle class="st1" cx="455" cy="502.8" r="7.3"/>
	<circle class="st1" cx="479.7" cy="502.8" r="7.3"/>
	<circle class="st1" cx="504.4" cy="502.8" r="7.3"/>
	<circle class="st1" cx="529.1" cy="502.8" r="7.3"/>
</g>
<g>
	<path class="st1" d="M388.3,143.3l23.5,3.9c-3,8.6-7.8,15.2-14.3,19.7c-6.5,4.5-14.7,6.8-24.5,6.8c-15.5,0-27-5.1-34.4-15.2
		c-5.9-8.1-8.8-18.3-8.8-30.7c0-14.8,3.9-26.3,11.6-34.7c7.7-8.4,17.5-12.5,29.3-12.5c13.3,0,23.7,4.4,31.4,13.1
		c7.7,8.8,11.3,22.2,11,40.2h-59.1c0.2,7,2.1,12.4,5.7,16.3c3.6,3.9,8.2,5.8,13.6,5.8c3.7,0,6.8-1,9.3-3
		C385.1,151.1,387,147.8,388.3,143.3z M389.6,119.5c-0.2-6.8-1.9-12-5.3-15.6c-3.4-3.6-7.4-5.3-12.3-5.3c-5.1,0-9.4,1.9-12.8,5.6
		c-3.4,3.7-5,8.8-5,15.3H389.6z"/>
</g>
</svg>
