<?xml version="1.0" encoding="utf-8"?>
<!-- Generator: Adobe Illustrator 22.0.1, SVG Export Plug-In . SVG Version: 6.00 Build 0)  -->
<svg version="1.1" id="Layer_1" xmlns="http://www.w3.org/2000/svg" xmlns:xlink="http://www.w3.org/1999/xlink" x="0px" y="0px"
	 viewBox="0 0 595.3 595.3" style="enable-background:new 0 0 595.3 595.3;" xml:space="preserve">
<style type="text/css">
	.st0{fill:#EC1F27;}
	.st1{fill:#FFFFFF;}
</style>
<g>
	<path class="st0" d="M524.3,595.3H71c-39.2,0-71-31.8-71-71V71C0,31.8,31.8,0,71,0h524.3v524.3
		C595.3,563.5,563.5,595.3,524.3,595.3z"/>
	<g>
		<path class="st1" d="M209.9,295.1v39.6H60.5c1.6-15,6.5-29.1,14.6-42.5c8.1-13.4,24.1-31.2,47.9-53.3c19.2-17.9,31-30,35.3-36.4
			c5.9-8.8,8.8-17.5,8.8-26.1c0-9.5-2.6-16.8-7.7-21.9c-5.1-5.1-12.2-7.7-21.2-7.7c-8.9,0-16,2.7-21.2,8c-5.3,5.4-8.3,14.3-9.1,26.7
			l-42.5-4.2c2.5-23.5,10.5-40.3,23.8-50.5c13.3-10.2,30-15.3,50.1-15.3c21.9,0,39.2,5.9,51.7,17.7c12.5,11.8,18.8,26.5,18.8,44.1
			c0,10-1.8,19.5-5.4,28.6c-3.6,9.1-9.3,18.5-17.1,28.4c-5.2,6.6-14.5,16-27.9,28.4c-13.5,12.3-22,20.5-25.6,24.6
			c-3.6,4-6.5,8-8.7,11.8H209.9z"/>
		<path class="st1" d="M239.3,277.5l42.5-4.4c1.2,9.6,4.8,17.2,10.8,22.8c6,5.6,12.8,8.4,20.6,8.4c8.9,0,16.4-3.6,22.6-10.8
			c6.2-7.2,9.3-18.1,9.3-32.7c0-13.7-3.1-23.9-9.2-30.7c-6.1-6.8-14.1-10.2-23.9-10.2c-12.2,0-23.2,5.4-32.9,16.2l-34.6-5
			l21.8-115.7H379v39.9h-80.4L292,193c9.5-4.8,19.2-7.1,29.1-7.1c18.9,0,34.9,6.9,48.1,20.6c13.1,13.8,19.7,31.6,19.7,53.5
			c0,18.3-5.3,34.6-15.9,49c-14.5,19.6-34.5,29.4-60.2,29.4c-20.5,0-37.3-5.5-50.2-16.5C249.6,310.9,241.9,296.1,239.3,277.5z"/>
	</g>
	<g>
		<path class="st1" d="M60.7,482.6v-78h10.3v38.7l38.7-38.7h14l-32.7,31.6l34.2,46.4h-13.6l-27.8-39.5l-12.8,12.4v27H60.7z"/>
		<path class="st1" d="M130.7,444.6c0-12.9,3.5-23.1,10.4-30.4c7-7.3,15.9-11,26.9-11c7.2,0,13.7,1.7,19.5,5.2
			c5.8,3.4,10.2,8.2,13.2,14.4s4.6,13.1,4.6,20.9c0,7.9-1.6,15-4.8,21.2c-3.2,6.2-7.7,11-13.6,14.2c-5.9,3.2-12.2,4.8-18.9,4.8
			c-7.3,0-13.9-1.8-19.7-5.3s-10.2-8.4-13.1-14.5C132.2,457.9,130.7,451.5,130.7,444.6z M141.4,444.8c0,9.4,2.5,16.8,7.6,22.2
			c5.1,5.4,11.4,8.1,19,8.1c7.8,0,14.2-2.7,19.2-8.2c5-5.5,7.5-13.2,7.5-23.3c0-6.3-1.1-11.9-3.2-16.6c-2.1-4.7-5.3-8.4-9.4-11
			c-4.1-2.6-8.8-3.9-13.9-3.9c-7.3,0-13.6,2.5-18.9,7.5C144,424.6,141.4,433,141.4,444.8z"/>
		<path class="st1" d="M218.8,482.6v-78h34.6c7,0,12.2,0.7,15.9,2.1c3.6,1.4,6.5,3.9,8.7,7.4c2.2,3.5,3.2,7.5,3.2,11.8
			c0,5.5-1.8,10.2-5.4,14c-3.6,3.8-9.1,6.2-16.6,7.2c2.7,1.3,4.8,2.6,6.2,3.9c3,2.8,5.9,6.2,8.6,10.4l13.6,21.2h-13l-10.3-16.2
			c-3-4.7-5.5-8.3-7.4-10.7c-2-2.5-3.7-4.2-5.2-5.2c-1.5-1-3.1-1.7-4.7-2.1c-1.2-0.2-3.1-0.4-5.7-0.4h-12v34.6H218.8z M229.1,439
			h22.2c4.7,0,8.4-0.5,11.1-1.5c2.7-1,4.7-2.5,6.1-4.7c1.4-2.1,2.1-4.5,2.1-7c0-3.7-1.3-6.7-4-9.1c-2.7-2.4-6.9-3.6-12.7-3.6h-24.7
			V439z"/>
		<path class="st1" d="M315.2,482.6v-68.8h-25.7v-9.2h61.8v9.2h-25.8v68.8H315.2z"/>
		<path class="st1" d="M363.6,482.6v-78H374v78H363.6z"/>
		<path class="st1" d="M392.1,482.6v-78h10.6l41,61.2v-61.2h9.9v78h-10.6l-41-61.3v61.3H392.1z"/>
		<path class="st1" d="M507.4,452v-9.2l33-0.1v28.9c-5.1,4-10.3,7.1-15.7,9.1c-5.4,2-10.9,3.1-16.6,3.1c-7.7,0-14.6-1.6-20.9-4.9
			c-6.3-3.3-11-8-14.2-14.2c-3.2-6.2-4.8-13.1-4.8-20.8c0-7.6,1.6-14.7,4.8-21.3s7.7-11.5,13.7-14.7c6-3.2,12.8-4.8,20.6-4.8
			c5.6,0,10.7,0.9,15.3,2.7c4.6,1.8,8.1,4.4,10.7,7.6s4.6,7.5,5.9,12.8l-9.3,2.6c-1.2-4-2.6-7.1-4.4-9.4c-1.7-2.3-4.2-4.1-7.4-5.5
			c-3.2-1.4-6.8-2-10.7-2c-4.7,0-8.8,0.7-12.2,2.2c-3.4,1.4-6.2,3.3-8.3,5.7c-2.1,2.3-3.7,4.9-4.9,7.7c-2,4.8-3,10.1-3,15.7
			c0,7,1.2,12.8,3.6,17.5c2.4,4.7,5.9,8.2,10.5,10.4c4.6,2.3,9.4,3.4,14.6,3.4c4.5,0,8.8-0.9,13.1-2.6s7.5-3.6,9.7-5.5V452H507.4z"
			/>
	</g>
	<g>
		<circle class="st1" cx="60" cy="502.8" r="7.3"/>
		<circle class="st1" cx="84.7" cy="502.8" r="7.3"/>
		<circle class="st1" cx="109.4" cy="502.8" r="7.3"/>
		<circle class="st1" cx="134.1" cy="502.8" r="7.3"/>
		<circle class="st1" cx="158.8" cy="502.8" r="7.3"/>
		<circle class="st1" cx="183.5" cy="502.8" r="7.3"/>
		<circle class="st1" cx="208.1" cy="502.8" r="7.3"/>
		<circle class="st1" cx="232.8" cy="502.8" r="7.3"/>
		<circle class="st1" cx="257.5" cy="502.8" r="7.3"/>
		<circle class="st1" cx="282.2" cy="502.8" r="7.3"/>
		<circle class="st1" cx="306.9" cy="502.8" r="7.3"/>
		<circle class="st1" cx="331.6" cy="502.8" r="7.3"/>
		<circle class="st1" cx="356.3" cy="502.8" r="7.3"/>
		<circle class="st1" cx="381" cy="502.8" r="7.3"/>
		<circle class="st1" cx="405.6" cy="502.8" r="7.3"/>
		<circle class="st1" cx="430.3" cy="502.8" r="7.3"/>
		<circle class="st1" cx="455" cy="502.8" r="7.3"/>
		<circle class="st1" cx="479.7" cy="502.8" r="7.3"/>
		<circle class="st1" cx="504.4" cy="502.8" r="7.3"/>
		<circle class="st1" cx="529.1" cy="502.8" r="7.3"/>
	</g>
	<g>
		<path class="st1" d="M415.6,148.4c0-8.8,2.2-16.3,6.6-22.4c4.4-6.2,10.8-9.2,19.2-9.2c7.7,0,14.1,2.8,19.2,8.3
			c5.1,5.5,7.6,13.6,7.6,24.3c0,10.4-2.6,18.4-7.7,24c-5.1,5.6-11.4,8.4-18.9,8.4c-7.4,0-13.6-2.8-18.6-8.3S415.6,159.6,415.6,148.4
			z M441.9,127.2c-3.7,0-6.9,1.6-9.4,4.9s-3.7,9.2-3.7,17.9c0,7.9,1.3,13.4,3.8,16.7c2.5,3.2,5.6,4.8,9.3,4.8c3.8,0,6.9-1.6,9.4-4.9
			c2.5-3.2,3.7-9.2,3.7-17.8c0-7.9-1.3-13.5-3.8-16.7C448.8,128.8,445.6,127.2,441.9,127.2z M442,246.4l67.3-129.6h12.2l-67,129.6
			H442z M495.2,213c0-8.8,2.2-16.3,6.6-22.4c4.4-6.1,10.8-9.2,19.3-9.2c7.7,0,14.1,2.8,19.2,8.3c5.1,5.5,7.6,13.6,7.6,24.3
			c0,10.4-2.6,18.4-7.7,24c-5.1,5.6-11.5,8.4-19,8.4c-7.4,0-13.6-2.8-18.6-8.3C497.6,232.5,495.2,224.1,495.2,213z M521.5,191.8
			c-3.8,0-7,1.6-9.4,4.9c-2.5,3.2-3.7,9.2-3.7,17.9c0,7.8,1.3,13.4,3.8,16.6c2.5,3.2,5.6,4.9,9.3,4.9c3.9,0,7-1.6,9.5-4.9
			c2.5-3.2,3.7-9.2,3.7-17.8c0-7.9-1.3-13.5-3.8-16.7C528.4,193.4,525.3,191.8,521.5,191.8z"/>
	</g>
</g>
</svg>
