<?xml version="1.0" encoding="utf-8"?>
<!-- Generator: Adobe Illustrator 22.0.1, SVG Export Plug-In . SVG Version: 6.00 Build 0)  -->
<svg version="1.1" id="Layer_1" xmlns="http://www.w3.org/2000/svg" xmlns:xlink="http://www.w3.org/1999/xlink" x="0px" y="0px"
	 viewBox="0 0 595.3 595.3" style="enable-background:new 0 0 595.3 595.3;" xml:space="preserve">
<style type="text/css">
	.st0{fill:#EC1F27;}
	.st1{fill:#FFFFFF;}
</style>
<g>
	<path class="st0" d="M524,595.3H71.3C31.9,595.3,0,563.4,0,524V71.3C0,31.9,31.9,0,71.3,0h524v524
		C595.3,563.4,563.4,595.3,524,595.3z"/>
	<g>
		<path class="st1" d="M112.1,177.5v9.9H56.3c-0.1-2.5,0.3-4.9,1.2-7.2c1.4-3.8,3.7-7.5,6.8-11.2c3.1-3.7,7.6-7.9,13.5-12.8
			c9.2-7.5,15.4-13.5,18.6-17.9c3.2-4.4,4.8-8.5,4.8-12.5c0-4.1-1.5-7.6-4.4-10.4c-2.9-2.8-6.8-4.2-11.5-4.2c-5,0-9,1.5-12,4.5
			c-3,3-4.5,7.1-4.5,12.4l-10.6-1.1c0.7-7.9,3.5-14,8.2-18.1c4.8-4.2,11.1-6.2,19.2-6.2c8.1,0,14.5,2.2,19.2,6.7
			c4.7,4.5,7.1,10,7.1,16.7c0,3.4-0.7,6.7-2.1,9.9c-1.4,3.3-3.7,6.7-6.9,10.3c-3.2,3.6-8.5,8.6-16,14.8c-6.2,5.2-10.2,8.8-12,10.6
			c-1.8,1.9-3.2,3.7-4.4,5.6H112.1z"/>
		<path class="st1" d="M156.3,160.4l10.5-0.9c0.5,4.2,1.7,7.7,3.5,10.4c1.8,2.7,4.6,4.9,8.5,6.6c3.8,1.7,8.1,2.5,12.9,2.5
			c4.3,0,8-0.6,11.3-1.9c3.3-1.3,5.7-3,7.3-5.2c1.6-2.2,2.4-4.6,2.4-7.2c0-2.6-0.8-5-2.3-6.9c-1.5-2-4.1-3.6-7.6-5
			c-2.3-0.9-7.3-2.3-15-4.1c-7.7-1.9-13.2-3.6-16.3-5.3c-4-2.1-7-4.7-9-7.9c-2-3.1-3-6.6-3-10.5c0-4.3,1.2-8.2,3.6-11.9
			c2.4-3.7,5.9-6.5,10.6-8.4c4.6-1.9,9.8-2.9,15.5-2.9c6.2,0,11.8,1,16.5,3c4.8,2,8.4,5,11,8.9c2.6,3.9,3.9,8.3,4.1,13.3l-10.7,0.8
			c-0.6-5.3-2.5-9.4-5.8-12.1c-3.3-2.7-8.2-4.1-14.7-4.1c-6.7,0-11.7,1.2-14.8,3.7c-3.1,2.5-4.6,5.5-4.6,8.9c0,3,1.1,5.5,3.3,7.5
			c2.1,2,7.8,4,16.8,6c9.1,2.1,15.3,3.8,18.7,5.4c4.9,2.3,8.5,5.1,10.9,8.6c2.3,3.5,3.5,7.5,3.5,12c0,4.5-1.3,8.7-3.9,12.7
			c-2.6,4-6.3,7.1-11.1,9.3c-4.8,2.2-10.2,3.3-16.2,3.3c-7.6,0-14-1.1-19.2-3.3c-5.2-2.2-9.2-5.6-12.1-10
			C158,171,156.4,166,156.3,160.4z"/>
		<path class="st1" d="M260.1,187.4v-74.4h-27.8v-9.9h66.8v9.9h-27.9v74.4H260.1z"/>
		<path class="st1" d="M365.9,103.1h11.2v48.7c0,8.5-1,15.2-2.9,20.2c-1.9,5-5.4,9-10.4,12.2c-5,3.1-11.6,4.7-19.7,4.7
			c-7.9,0-14.4-1.4-19.4-4.1c-5-2.7-8.6-6.7-10.8-11.8c-2.1-5.2-3.2-12.2-3.2-21.1v-48.7h11.2v48.7c0,7.3,0.7,12.7,2,16.2
			c1.4,3.5,3.7,6.1,7,8c3.3,1.9,7.4,2.8,12.2,2.8c8.2,0,14.1-1.9,17.5-5.6c3.5-3.7,5.2-10.9,5.2-21.5V103.1z"/>
		<path class="st1" d="M395.2,187.4v-84.3h11.2v41.8l41.9-41.8h15.1L428,137.3l36.9,50.1h-14.7l-30-42.7l-13.8,13.5v29.2H395.2z"/>
		<path class="st1" d="M470.4,160.4l10.5-0.9c0.5,4.2,1.7,7.7,3.5,10.4c1.8,2.7,4.6,4.9,8.5,6.6c3.8,1.7,8.1,2.5,12.9,2.5
			c4.3,0,8-0.6,11.3-1.9c3.3-1.3,5.7-3,7.3-5.2c1.6-2.2,2.4-4.6,2.4-7.2c0-2.6-0.8-5-2.3-6.9c-1.5-2-4.1-3.6-7.6-5
			c-2.3-0.9-7.3-2.3-15-4.1c-7.7-1.9-13.2-3.6-16.3-5.3c-4-2.1-7-4.7-9-7.9c-2-3.1-3-6.6-3-10.5c0-4.3,1.2-8.2,3.6-11.9
			c2.4-3.7,5.9-6.5,10.6-8.4c4.6-1.9,9.8-2.9,15.5-2.9c6.2,0,11.8,1,16.5,3c4.8,2,8.4,5,11,8.9c2.6,3.9,3.9,8.3,4.1,13.3l-10.7,0.8
			c-0.6-5.3-2.5-9.4-5.8-12.1c-3.3-2.7-8.2-4.1-14.7-4.1c-6.7,0-11.7,1.2-14.8,3.7c-3.1,2.5-4.6,5.5-4.6,8.9c0,3,1.1,5.5,3.3,7.5
			c2.1,2,7.8,4,16.8,6c9.1,2.1,15.3,3.8,18.7,5.4c4.9,2.3,8.5,5.1,10.9,8.6c2.3,3.5,3.5,7.5,3.5,12c0,4.5-1.3,8.7-3.9,12.7
			c-2.6,4-6.3,7.1-11.1,9.3c-4.8,2.2-10.2,3.3-16.2,3.3c-7.6,0-14-1.1-19.2-3.3c-5.2-2.2-9.2-5.6-12.1-10
			C472.1,171,470.5,166,470.4,160.4z"/>
	</g>
	<g>
		<path class="st1" d="M242.7,477.7v47.9H62.1c2-18.1,7.8-35.2,17.6-51.4c9.8-16.2,29.1-37.7,57.9-64.5c23.2-21.6,37.5-36.3,42.7-44
			c7.1-10.6,10.6-21.1,10.6-31.5c0-11.5-3.1-20.3-9.3-26.5c-6.2-6.2-14.7-9.3-25.6-9.3c-10.8,0-19.3,3.2-25.7,9.7
			c-6.4,6.5-10,17.2-11,32.3l-51.3-5.1c3.1-28.4,12.7-48.7,28.8-61.1c16.1-12.3,36.3-18.5,60.5-18.5c26.5,0,47.4,7.2,62.5,21.5
			c15.2,14.3,22.7,32.1,22.7,53.4c0,12.1-2.2,23.6-6.5,34.6c-4.3,10.9-11.2,22.4-20.6,34.4c-6.2,7.9-17.5,19.4-33.7,34.3
			c-16.3,14.9-26.6,24.8-30.9,29.7c-4.3,4.9-7.9,9.7-10.5,14.3H242.7z"/>
	</g>
	<g>
		<path class="st1" d="M269.5,397.8l35.8-3.7c1,8.1,4,14.5,9.1,19.2c5,4.7,10.8,7.1,17.4,7.1c7.5,0,13.8-3,19-9.1
			c5.2-6.1,7.8-15.3,7.8-27.5c0-11.5-2.6-20.1-7.7-25.9c-5.2-5.7-11.9-8.6-20.1-8.6c-10.3,0-19.5,4.6-27.7,13.7l-29.1-4.2l18.4-97.5
			h94.9v33.6h-67.7l-5.6,31.8c8-4,16.2-6,24.5-6c15.9,0,29.4,5.8,40.5,17.4c11.1,11.6,16.6,26.6,16.6,45.1
			c0,15.4-4.5,29.2-13.4,41.3c-12.2,16.5-29.1,24.8-50.7,24.8c-17.3,0-31.4-4.6-42.3-13.9C278.2,426,271.6,413.5,269.5,397.8z"/>
		<path class="st1" d="M475.2,257.9c18.1,0,32.3,6.5,42.5,19.4c12.2,15.3,18.3,40.8,18.3,76.3c0,35.4-6.1,60.9-18.4,76.4
			c-10.1,12.8-24.3,19.2-42.4,19.2c-18.2,0-32.9-7-44.1-21c-11.2-14-16.7-39-16.7-74.9c0-35.3,6.1-60.6,18.4-76.1
			C442.9,264.3,457.1,257.9,475.2,257.9z M475.2,287.7c-4.3,0-8.2,1.4-11.6,4.2c-3.4,2.8-6,7.7-7.9,14.9c-2.5,9.3-3.7,24.9-3.7,46.9
			c0,22,1.1,37.1,3.3,45.3c2.2,8.2,5,13.7,8.4,16.4c3.4,2.7,7.2,4.1,11.6,4.1s8.2-1.4,11.6-4.2c3.4-2.8,6-7.7,7.9-14.9
			c2.5-9.2,3.7-24.8,3.7-46.8c0-22-1.1-37.1-3.3-45.3c-2.2-8.2-5-13.7-8.4-16.5C483.4,289.1,479.6,287.7,475.2,287.7z"/>
	</g>
	<circle class="st1" cx="300.5" cy="501.5" r="24.1"/>
	<g>
		<circle class="st1" cx="60" cy="222.2" r="7.3"/>
		<circle class="st1" cx="84.7" cy="222.2" r="7.3"/>
		<circle class="st1" cx="109.4" cy="222.2" r="7.3"/>
		<circle class="st1" cx="134.1" cy="222.2" r="7.3"/>
		<circle class="st1" cx="158.8" cy="222.2" r="7.3"/>
		<circle class="st1" cx="183.4" cy="222.2" r="7.3"/>
		<circle class="st1" cx="208.1" cy="222.2" r="7.3"/>
		<circle class="st1" cx="232.8" cy="222.2" r="7.3"/>
		<circle class="st1" cx="257.5" cy="222.2" r="7.3"/>
		<circle class="st1" cx="282.2" cy="222.2" r="7.3"/>
		<circle class="st1" cx="306.9" cy="222.2" r="7.3"/>
		<circle class="st1" cx="331.6" cy="222.2" r="7.3"/>
		<circle class="st1" cx="356.2" cy="222.2" r="7.3"/>
		<circle class="st1" cx="380.9" cy="222.2" r="7.3"/>
		<circle class="st1" cx="405.6" cy="222.2" r="7.3"/>
		<circle class="st1" cx="430.3" cy="222.2" r="7.3"/>
		<circle class="st1" cx="455" cy="222.2" r="7.3"/>
		<circle class="st1" cx="479.7" cy="222.2" r="7.3"/>
		<circle class="st1" cx="504.3" cy="222.2" r="7.3"/>
		<circle class="st1" cx="529" cy="222.2" r="7.3"/>
	</g>
</g>
</svg>
