<?xml version="1.0" encoding="utf-8"?>
<!-- Generator: Adobe Illustrator 22.0.1, SVG Export Plug-In . SVG Version: 6.00 Build 0)  -->
<svg version="1.1" id="Layer_1" xmlns="http://www.w3.org/2000/svg" xmlns:xlink="http://www.w3.org/1999/xlink" x="0px" y="0px"
	 viewBox="0 0 472.4 524.3" style="enable-background:new 0 0 472.4 524.3;" xml:space="preserve">
<style type="text/css">
	.st0{fill:#E2E6E8;}
</style>
<path class="st0" d="M472.3,218.1c0-25.1-20.4-45.5-45.5-45.5H263c22-36.2,38.3-78.2,37.8-123.1C300.4,22.1,278,0,250.6,0
	c-0.2,0-0.4,0-0.6,0c-27.7,0.3-49.9,23.1-49.5,50.8c0.4,34.6-21.3,71.5-46.4,102c-2.7-14-15-24.5-29.7-24.5H30.3
	C13.6,128.3,0,141.8,0,158.6V494c0,16.7,13.6,30.3,30.3,30.3h94.1c16.7,0,30.3-13.6,30.3-30.3v-8.9h200.9
	c25.1,0,45.5-20.4,45.5-45.5c0-13.2-5.6-25-14.6-33.3c22.4-2.8,39.8-21.9,39.8-45.1c0-8.3-2.3-16.1-6.2-22.8
	c15.3-7.3,25.9-22.9,25.9-41c0-13.6-6-25.8-15.5-34.1C453.9,261.6,472.3,242,472.3,218.1z"/>
</svg>
