<?xml version="1.0" encoding="utf-8"?>
<!-- Generator: Adobe Illustrator 22.0.1, SVG Export Plug-In . SVG Version: 6.00 Build 0)  -->
<svg version="1.1" id="Layer_1" xmlns="http://www.w3.org/2000/svg" xmlns:xlink="http://www.w3.org/1999/xlink" x="0px" y="0px"
	 viewBox="0 0 472.4 412.9" style="enable-background:new 0 0 472.4 412.9;" xml:space="preserve">
<style type="text/css">
	.st0{fill:#EC1F27;}
</style>
<path class="st0" d="M468.2,386.2L250.8,9.5c-6.9-11.9-24-11.9-30.9,0L2.4,386.2c-6.9,11.9,1.7,26.7,15.4,26.7h434.9
	C466.5,412.9,475.1,398.1,468.2,386.2z M235.3,367.2c-15.3,0-27.8-12.4-27.8-27.8s12.4-27.8,27.8-27.8c15.3,0,27.8,12.4,27.8,27.8
	S250.7,367.2,235.3,367.2z M264.1,115.1l-4.8,160.3c-0.4,13-11,23.3-24,23.3h0c-13,0-23.6-10.3-24-23.3l-4.8-160.3
	c-0.5-16.2,12.6-29.7,28.8-29.7h0C251.6,85.4,264.6,98.9,264.1,115.1z"/>
</svg>
