<?xml version="1.0" encoding="utf-8"?>
<!-- Generator: Adobe Illustrator 22.0.1, SVG Export Plug-In . SVG Version: 6.00 Build 0)  -->
<svg version="1.1" id="Layer_1" xmlns="http://www.w3.org/2000/svg" xmlns:xlink="http://www.w3.org/1999/xlink" x="0px" y="0px"
	 viewBox="0 0 531.5 524.3" style="enable-background:new 0 0 531.5 524.3;" xml:space="preserve">
<style type="text/css">
	.st0{fill:#E2E6E8;}
</style>
<path class="st0" d="M526.3,489.2L333.8,296.6c54.6-72.8,49.5-176.1-16.7-242.2c-72.5-72.5-190.1-72.5-262.7,0s-72.5,190.1,0,262.7
	c68.5,68.5,176.9,71.5,249.8,10.5L496,519.4c6.5,6.5,17.2,6.5,23.7,0l6.5-6.5C532.8,506.4,532.8,495.7,526.3,489.2z M71.5,300
	c-63.1-63.1-63.1-165.4,0-228.5s165.4-63.1,228.5,0s63.1,165.4,0,228.5S134.6,363.1,71.5,300z"/>
</svg>
